<?xml version="1.0" standalone="no"?>
<!DOCTYPE svg PUBLIC "-//W3C//DTD SVG 20010904//EN"
 "http://www.w3.org/TR/2001/REC-SVG-20010904/DTD/svg10.dtd">
<svg version="1.0" xmlns="http://www.w3.org/2000/svg"
 width="573.000000pt" height="360.000000pt" viewBox="0 0 573.000000 360.000000"
 preserveAspectRatio="xMidYMid meet">

<g transform="translate(0.000000,360.000000) scale(0.100000,-0.100000)"
fill="#000000" stroke="none">
<path d="M470 2491 l0 -378 66 -39 c74 -43 122 -94 156 -163 32 -65 32 -187 0
-252 -34 -69 -82 -120 -156 -163 l-66 -39 2 -366 3 -366 2398 -3 2397 -2 0
372 0 373 -47 25 c-157 82 -229 252 -172 406 25 67 111 159 177 188 l42 19 0
384 0 383 -2400 0 -2400 0 0 -379z m4132 248 c6 -80 70 -80 76 0 l3 41 252 -2
252 -3 3 -305 2 -305 -44 -28 c-65 -41 -133 -119 -169 -195 -28 -60 -32 -77
-32 -157 0 -80 4 -97 32 -157 36 -77 107 -158 170 -195 l43 -25 -2 -297 -3
-296 -252 -3 -252 -2 -3 42 c-3 36 -7 44 -26 46 -33 5 -52 -15 -52 -54 l0 -34
-2025 0 -2025 0 0 294 0 295 55 36 c267 177 267 523 0 700 l-55 36 0 305 0
304 2024 0 2025 0 3 -41z"/>
<path d="M902 2577 c-25 -26 -32 -41 -32 -72 1 -38 6 -44 80 -104 44 -36 80
-68 80 -72 0 -3 -7 -12 -14 -19 -22 -17 -60 -8 -71 18 -7 16 -18 22 -42 22
-29 0 -33 -3 -33 -28 0 -19 11 -39 33 -60 28 -27 40 -32 83 -32 44 0 54 4 82
33 25 26 32 41 32 72 0 38 -5 44 -80 104 -44 35 -80 67 -80 71 0 15 30 31 52
28 13 -2 27 -13 33 -25 7 -17 18 -23 42 -23 29 0 33 3 33 28 0 19 -11 39 -33
60 -28 27 -40 32 -83 32 -44 0 -54 -4 -82 -33z"/>
<path d="M1155 2420 l0 -190 103 0 102 0 0 60 0 60 -35 0 c-31 0 -35 -3 -35
-25 0 -21 -5 -25 -30 -25 -28 0 -30 2 -30 40 0 38 2 40 30 40 28 0 30 3 30 35
0 32 -2 35 -30 35 -29 0 -30 2 -30 45 0 43 1 45 30 45 25 0 30 -4 30 -25 0
-22 4 -25 35 -25 l35 0 0 60 0 60 -102 0 -103 0 0 -190z"/>
<path d="M1453 2578 l-31 -33 -5 -157 -5 -158 46 0 45 0 -5 45 c-5 44 -5 45
22 45 27 0 27 -1 22 -45 l-5 -45 45 0 46 0 -5 158 -5 157 -31 33 c-24 24 -39
32 -67 32 -28 0 -43 -8 -67 -32z m95 -120 l3 -68 -31 0 -30 0 0 63 c0 70 4 79
35 75 17 -3 20 -11 23 -70z"/>
<path d="M1685 2420 l0 -190 48 0 47 0 0 35 c0 19 -4 35 -10 35 -5 0 -10 18
-10 40 0 22 4 40 9 40 16 0 36 -65 33 -107 l-4 -43 51 0 c49 0 51 1 51 28 0
15 -11 49 -25 76 -31 61 -31 67 0 96 37 35 34 90 -7 141 l-31 39 -76 0 -76 0
0 -190z m139 98 c15 -25 -3 -52 -38 -56 -24 -3 -26 -1 -26 38 0 39 2 41 26 38
15 -2 32 -11 38 -20z"/>
<path d="M1972 2577 l-32 -33 0 -125 0 -125 33 -32 c28 -27 40 -32 83 -32 44
0 54 4 82 33 20 21 32 43 32 60 0 24 -4 27 -33 27 -24 0 -35 -6 -42 -22 -11
-26 -49 -35 -71 -18 -10 9 -14 37 -14 110 0 73 4 101 14 110 22 17 60 8 71
-17 7 -17 18 -23 42 -23 29 0 33 3 33 28 0 19 -11 39 -33 60 -28 27 -40 32
-83 32 -44 0 -54 -4 -82 -33z"/>
<path d="M2225 2420 l0 -190 43 0 44 0 -7 75 -7 75 41 0 41 0 0 -40 c0 -22 -4
-40 -10 -40 -5 0 -10 -16 -10 -35 l0 -35 50 0 50 0 0 35 c0 19 -4 35 -10 35
-6 0 -10 47 -10 120 0 73 4 120 10 120 6 0 10 16 10 35 l0 35 -50 0 -50 0 0
-35 c0 -19 5 -35 10 -35 6 0 10 -20 10 -45 l0 -45 -41 0 -42 0 7 80 7 80 -43
0 -43 0 0 -190z"/>
<path d="M3237 2514 c-97 -23 -167 -63 -243 -139 -160 -158 -198 -373 -103
-583 36 -80 138 -188 218 -231 289 -154 640 -3 738 318 18 61 17 205 -3 272
-79 269 -343 427 -607 363z m296 -101 c234 -111 324 -387 200 -615 -35 -64
-130 -153 -195 -183 -127 -58 -254 -54 -385 10 -291 143 -319 564 -50 749 88
61 145 77 262 74 89 -3 108 -7 168 -35z"/>
<path d="M3025 2187 c-8 -13 -22 -54 -32 -92 -32 -129 11 -261 114 -355 73
-66 145 -93 250 -94 83 0 117 12 107 39 -4 9 -30 12 -97 12 -81 -1 -99 2 -148
26 -66 32 -132 99 -162 165 -30 66 -29 188 1 255 12 27 20 53 16 58 -10 16
-33 9 -49 -14z"/>
<path d="M4616 2514 c-13 -12 -16 -38 -16 -120 0 -101 1 -105 25 -116 45 -20
55 1 55 121 0 106 -7 131 -36 131 -7 0 -20 -7 -28 -16z"/>
<path d="M870 2130 c0 -36 3 -40 24 -40 15 0 27 7 30 18 3 9 4 -29 2 -85 l-4
-103 29 0 29 0 1 103 c1 56 3 94 6 85 3 -11 14 -18 29 -18 21 0 24 4 24 40 l0
40 -85 0 -85 0 0 -40z"/>
<path d="M1190 2045 l0 -125 28 0 27 0 0 125 0 125 -27 0 -28 0 0 -125z"/>
<path d="M1422 2154 c-20 -14 -22 -23 -22 -109 0 -86 2 -95 22 -109 47 -33
117 -5 118 47 0 22 -36 23 -44 1 -3 -9 -15 -14 -28 -12 -21 3 -23 8 -23 73 0
65 2 70 23 73 13 2 25 -3 28 -12 8 -22 44 -21 44 2 -1 51 -71 79 -118 46z"/>
<path d="M1700 2045 l0 -125 31 0 c31 0 32 0 25 42 -7 42 -7 42 14 23 11 -10
20 -29 20 -42 0 -19 5 -23 30 -23 42 0 40 32 -5 82 -39 42 -38 53 9 97 14 14
26 35 26 48 0 19 -5 23 -30 23 -25 0 -30 -4 -30 -23 0 -13 -9 -32 -20 -42 -21
-19 -21 -19 -14 23 7 42 6 42 -25 42 l-31 0 0 -125z"/>
<path d="M2005 2045 l0 -125 68 0 67 0 0 40 c0 33 -3 40 -20 40 -11 0 -20 -7
-20 -15 0 -9 -9 -15 -25 -15 -20 0 -25 5 -25 25 0 18 5 25 20 25 15 0 20 7 20
25 0 18 -5 25 -20 25 -15 0 -20 7 -20 25 0 20 5 25 25 25 16 0 25 -6 25 -15 0
-8 9 -15 20 -15 17 0 20 7 20 40 l0 40 -67 0 -68 0 0 -125z"/>
<path d="M2290 2130 c0 -36 3 -40 24 -40 15 0 27 7 30 18 3 9 4 -29 2 -85 l-4
-103 29 0 29 0 1 103 c1 56 3 94 6 85 3 -11 14 -18 29 -18 21 0 24 4 24 40 l0
40 -85 0 -85 0 0 -40z"/>
<path d="M4612 2108 c-8 -8 -12 -48 -12 -114 0 -110 8 -129 52 -122 22 3 23 7
26 112 3 111 -4 136 -37 136 -9 0 -22 -5 -29 -12z"/>
<path d="M4616 1701 c-25 -27 -19 -219 7 -235 12 -8 22 -8 35 0 25 16 31 208
6 235 -9 11 -20 19 -24 19 -4 0 -15 -8 -24 -19z"/>
<path d="M3721 1636 c-53 -56 -60 -73 -39 -94 19 -19 35 -14 78 25 62 55 85
91 70 108 -24 28 -56 17 -109 -39z"/>
<path d="M3795 1576 c-28 -29 -40 -66 -31 -102 7 -27 343 -377 410 -425 43
-32 74 -36 115 -15 32 17 51 54 51 99 0 28 -25 57 -218 249 -215 216 -218 218
-260 218 -32 0 -49 -6 -67 -24z"/>
<path d="M4612 1298 c-8 -8 -12 -49 -12 -120 0 -106 1 -109 25 -120 45 -20 55
1 55 121 0 109 -7 131 -40 131 -9 0 -21 -5 -28 -12z"/>
<path d="M690 1270 c0 -20 7 -20 1000 -20 993 0 1000 0 1000 20 0 20 -7 20
-1000 20 -993 0 -1000 0 -1000 -20z"/>
<path d="M742 1128 c-5 -7 -12 -46 -14 -85 -5 -66 -4 -73 13 -73 12 0 19 7 19
20 0 11 6 20 14 20 9 0 12 -7 9 -20 -4 -15 0 -20 16 -20 19 0 21 5 21 68 0 54
-4 72 -18 85 -22 20 -46 22 -60 5z m48 -58 c0 -20 -5 -30 -15 -30 -10 0 -15
10 -15 30 0 20 5 30 15 30 10 0 15 -10 15 -30z"/>
<path d="M850 1055 l0 -85 45 0 c41 0 45 2 45 25 0 16 -6 25 -15 25 -8 0 -15
-4 -15 -10 0 -5 -7 -10 -15 -10 -12 0 -15 14 -15 70 0 56 -3 70 -15 70 -12 0
-15 -16 -15 -85z"/>
<path d="M965 1055 l0 -85 48 0 c44 0 47 2 47 25 0 16 -6 25 -15 25 -8 0 -15
-4 -15 -10 0 -5 -7 -10 -15 -10 -12 0 -15 14 -15 70 0 60 -2 70 -17 70 -16 0
-18 -11 -18 -85z"/>
<path d="M1172 1128 c-5 -7 -12 -46 -14 -85 -5 -68 -4 -73 15 -73 14 0 18 5
14 20 -4 15 0 20 13 20 13 0 17 -5 13 -20 -4 -15 0 -20 14 -20 19 0 20 5 15
73 -5 77 -14 97 -42 97 -10 0 -22 -6 -28 -12z m46 -61 c3 -22 -1 -27 -17 -27
-15 0 -21 6 -21 23 0 46 33 49 38 4z"/>
<path d="M1275 1055 l0 -85 31 0 c48 0 81 49 53 77 -8 8 -8 13 0 17 33 21 -7
76 -55 76 l-29 0 0 -85z m60 35 c0 -7 -6 -15 -12 -17 -8 -3 -13 4 -13 17 0 13
5 20 13 18 6 -3 12 -11 12 -18z m0 -70 c0 -7 -6 -15 -12 -17 -8 -3 -13 4 -13
17 0 13 5 20 13 18 6 -3 12 -11 12 -18z"/>
<path d="M1407 1122 c-24 -26 -23 -113 1 -135 43 -39 82 -5 82 70 0 73 -45
108 -83 65z m48 -67 c0 -39 -4 -50 -17 -53 -15 -3 -18 5 -18 53 0 48 3 56 18
53 13 -3 17 -14 17 -53z"/>
<path d="M1518 1068 c5 -80 14 -98 47 -98 39 0 55 30 55 103 0 58 -2 67 -18
67 -16 0 -18 -8 -18 -67 1 -57 -2 -68 -16 -71 -16 -3 -18 5 -18 67 0 63 -2 71
-19 71 -17 0 -18 -7 -13 -72z"/>
<path d="M1650 1115 c0 -26 24 -35 34 -12 3 6 4 -21 2 -60 -3 -65 -1 -73 15
-73 16 0 17 7 12 70 -4 49 -3 70 6 70 6 0 11 -4 11 -10 0 -5 7 -10 15 -10 9 0
15 9 15 25 0 24 -3 25 -55 25 -52 0 -55 -1 -55 -25z"/>
<path d="M1917 1100 c-4 -14 -14 -20 -34 -20 l-28 -1 23 -18 c19 -17 21 -23
12 -46 l-11 -28 26 17 c23 15 27 15 50 0 l26 -17 -11 28 c-9 23 -7 29 12 46
l23 18 -28 1 c-20 0 -30 6 -34 20 -3 11 -9 20 -13 20 -4 0 -10 -9 -13 -20z"/>
<path d="M2137 1100 c-4 -14 -14 -20 -34 -20 l-28 -1 23 -18 c19 -17 21 -23
12 -46 l-11 -28 26 17 c23 15 27 15 50 0 l26 -17 -11 28 c-9 23 -7 29 12 46
l23 18 -28 1 c-20 0 -30 6 -34 20 -3 11 -9 20 -13 20 -4 0 -10 -9 -13 -20z"/>
<path d="M2357 1100 c-4 -14 -14 -20 -34 -20 l-28 -1 23 -18 c19 -17 21 -23
12 -46 l-11 -28 26 17 c23 15 27 15 50 0 l26 -17 -11 28 c-9 23 -7 29 12 46
l23 18 -28 1 c-20 0 -30 6 -34 20 -3 11 -9 20 -13 20 -4 0 -10 -9 -13 -20z"/>
<path d="M2577 1100 c-4 -14 -14 -20 -34 -20 l-28 -1 23 -18 c19 -17 21 -23
12 -46 l-11 -28 26 17 c23 15 27 15 50 0 l26 -17 -11 28 c-9 23 -7 29 12 46
l23 18 -28 1 c-20 0 -30 6 -34 20 -3 11 -9 20 -13 20 -4 0 -10 -9 -13 -20z"/>
</g>
</svg>
